<svg width="320" height="240" viewBox="0 0 320 240" fill="none" xmlns="http://www.w3.org/2000/svg">
<path d="M0 0H320V240H0V0Z" fill="white"/>
<path d="M234.65 118.438V123.82C234.65 123.924 234.648 124.06 234.643 124.227C234.637 124.388 234.63 124.562 234.619 124.75C234.609 124.932 234.598 125.109 234.588 125.281C234.583 125.448 234.575 125.586 234.564 125.695L239.236 118.438H240.83V127H239.619V121.75C239.619 121.583 239.622 121.37 239.627 121.109C239.632 120.849 239.64 120.594 239.65 120.344C239.661 120.089 239.669 119.891 239.674 119.75L235.018 127H233.416V118.438H234.65Z" fill="#3B3B3B"/>
<path d="M224.479 118.438V123.82C224.479 123.924 224.476 124.06 224.471 124.227C224.465 124.388 224.458 124.562 224.447 124.75C224.437 124.932 224.426 125.109 224.416 125.281C224.411 125.448 224.403 125.586 224.393 125.695L229.064 118.438H230.658V127H229.447V121.75C229.447 121.583 229.45 121.37 229.455 121.109C229.46 120.849 229.468 120.594 229.479 120.344C229.489 120.089 229.497 119.891 229.502 119.75L224.846 127H223.244V118.438H224.479Z" fill="#3B3B3B"/>
<path d="M221.564 129.961H220.299V127H213.229V118.438H214.533V125.898H219.072V118.438H220.369V125.914H221.564V129.961Z" fill="#3B3B3B"/>
<path d="M207.541 118.297C208.562 118.297 209.32 118.526 209.814 118.984C210.309 119.443 210.557 120.174 210.557 121.18V127H209.611L209.361 125.734H209.299C209.059 126.047 208.809 126.31 208.549 126.523C208.288 126.732 207.986 126.891 207.643 127C207.304 127.104 206.887 127.156 206.393 127.156C205.872 127.156 205.408 127.065 205.002 126.883C204.601 126.701 204.283 126.424 204.049 126.055C203.82 125.685 203.705 125.216 203.705 124.648C203.705 123.794 204.044 123.138 204.721 122.68C205.398 122.221 206.429 121.971 207.814 121.93L209.291 121.867V121.344C209.291 120.604 209.132 120.086 208.814 119.789C208.497 119.492 208.049 119.344 207.471 119.344C207.023 119.344 206.596 119.409 206.189 119.539C205.783 119.669 205.398 119.823 205.033 120L204.635 119.016C205.02 118.818 205.463 118.648 205.963 118.508C206.463 118.367 206.989 118.297 207.541 118.297ZM209.275 122.781L207.971 122.836C206.903 122.878 206.15 123.052 205.713 123.359C205.275 123.667 205.057 124.102 205.057 124.664C205.057 125.154 205.205 125.516 205.502 125.75C205.799 125.984 206.192 126.102 206.682 126.102C207.442 126.102 208.064 125.891 208.549 125.469C209.033 125.047 209.275 124.414 209.275 123.57V122.781Z" fill="#3B3B3B"/>
<path d="M198.564 118.281C199.632 118.281 200.484 118.648 201.119 119.383C201.755 120.117 202.072 121.221 202.072 122.695C202.072 123.669 201.926 124.487 201.635 125.148C201.343 125.81 200.932 126.31 200.4 126.648C199.874 126.987 199.252 127.156 198.533 127.156C198.08 127.156 197.682 127.096 197.338 126.977C196.994 126.857 196.7 126.695 196.455 126.492C196.21 126.289 196.007 126.068 195.846 125.828H195.752C195.768 126.031 195.786 126.276 195.807 126.562C195.833 126.849 195.846 127.099 195.846 127.312V130.828H194.541V118.438H195.611L195.783 119.703H195.846C196.012 119.443 196.215 119.206 196.455 118.992C196.695 118.773 196.986 118.602 197.33 118.477C197.679 118.346 198.09 118.281 198.564 118.281ZM198.338 119.375C197.744 119.375 197.265 119.49 196.9 119.719C196.541 119.948 196.278 120.292 196.111 120.75C195.945 121.203 195.856 121.773 195.846 122.461V122.711C195.846 123.435 195.924 124.047 196.08 124.547C196.242 125.047 196.505 125.427 196.869 125.688C197.239 125.948 197.734 126.078 198.354 126.078C198.885 126.078 199.327 125.935 199.682 125.648C200.036 125.362 200.299 124.964 200.471 124.453C200.648 123.938 200.736 123.346 200.736 122.68C200.736 121.669 200.538 120.867 200.143 120.273C199.752 119.674 199.15 119.375 198.338 119.375Z" fill="#3B3B3B"/>
<path d="M188.854 118.281C189.583 118.281 190.208 118.443 190.729 118.766C191.249 119.089 191.648 119.542 191.924 120.125C192.2 120.703 192.338 121.38 192.338 122.156V122.961H186.424C186.439 123.966 186.689 124.732 187.174 125.258C187.658 125.784 188.34 126.047 189.221 126.047C189.762 126.047 190.242 125.997 190.658 125.898C191.075 125.799 191.507 125.654 191.955 125.461V126.602C191.523 126.794 191.093 126.935 190.666 127.023C190.244 127.112 189.744 127.156 189.166 127.156C188.343 127.156 187.624 126.99 187.01 126.656C186.4 126.318 185.926 125.823 185.588 125.172C185.249 124.521 185.08 123.724 185.08 122.781C185.08 121.859 185.234 121.062 185.541 120.391C185.854 119.714 186.291 119.193 186.854 118.828C187.421 118.464 188.088 118.281 188.854 118.281ZM188.838 119.344C188.145 119.344 187.593 119.57 187.182 120.023C186.77 120.477 186.525 121.109 186.447 121.922H190.979C190.973 121.411 190.893 120.964 190.736 120.578C190.585 120.188 190.354 119.885 190.041 119.672C189.729 119.453 189.327 119.344 188.838 119.344Z" fill="#3B3B3B"/>
<path d="M176.736 118.438V122.031H181.51V118.438H182.807V127H181.51V123.133H176.736V127H175.432V118.438H176.736Z" fill="#3B3B3B"/>
<path d="M169.744 118.281C170.473 118.281 171.098 118.443 171.619 118.766C172.14 119.089 172.538 119.542 172.814 120.125C173.09 120.703 173.229 121.38 173.229 122.156V122.961H167.314C167.33 123.966 167.58 124.732 168.064 125.258C168.549 125.784 169.231 126.047 170.111 126.047C170.653 126.047 171.132 125.997 171.549 125.898C171.965 125.799 172.398 125.654 172.846 125.461V126.602C172.413 126.794 171.984 126.935 171.557 127.023C171.135 127.112 170.635 127.156 170.057 127.156C169.234 127.156 168.515 126.99 167.9 126.656C167.291 126.318 166.817 125.823 166.479 125.172C166.14 124.521 165.971 123.724 165.971 122.781C165.971 121.859 166.124 121.062 166.432 120.391C166.744 119.714 167.182 119.193 167.744 118.828C168.312 118.464 168.979 118.281 169.744 118.281ZM169.729 119.344C169.036 119.344 168.484 119.57 168.072 120.023C167.661 120.477 167.416 121.109 167.338 121.922H171.869C171.864 121.411 171.783 120.964 171.627 120.578C171.476 120.188 171.244 119.885 170.932 119.672C170.619 119.453 170.218 119.344 169.729 119.344Z" fill="#3B3B3B"/>
<path d="M164.736 118.438V119.539H160.846V127H159.541V118.438H164.736Z" fill="#3B3B3B"/>
<path d="M153.689 119.539H150.869V127H149.588V119.539H146.807V118.438H153.689V119.539Z" fill="#3B3B3B"/>
<path d="M142.166 118.297C143.187 118.297 143.945 118.526 144.439 118.984C144.934 119.443 145.182 120.174 145.182 121.18V127H144.236L143.986 125.734H143.924C143.684 126.047 143.434 126.31 143.174 126.523C142.913 126.732 142.611 126.891 142.268 127C141.929 127.104 141.512 127.156 141.018 127.156C140.497 127.156 140.033 127.065 139.627 126.883C139.226 126.701 138.908 126.424 138.674 126.055C138.445 125.685 138.33 125.216 138.33 124.648C138.33 123.794 138.669 123.138 139.346 122.68C140.023 122.221 141.054 121.971 142.439 121.93L143.916 121.867V121.344C143.916 120.604 143.757 120.086 143.439 119.789C143.122 119.492 142.674 119.344 142.096 119.344C141.648 119.344 141.221 119.409 140.814 119.539C140.408 119.669 140.023 119.823 139.658 120L139.26 119.016C139.645 118.818 140.088 118.648 140.588 118.508C141.088 118.367 141.614 118.297 142.166 118.297ZM143.9 122.781L142.596 122.836C141.528 122.878 140.775 123.052 140.338 123.359C139.9 123.667 139.682 124.102 139.682 124.664C139.682 125.154 139.83 125.516 140.127 125.75C140.424 125.984 140.817 126.102 141.307 126.102C142.067 126.102 142.689 125.891 143.174 125.469C143.658 125.047 143.9 124.414 143.9 123.57V122.781Z" fill="#3B3B3B"/>
<path d="M137.268 119.539H134.447V127H133.166V119.539H130.385V118.438H137.268V119.539Z" fill="#3B3B3B"/>
<path d="M123.299 121.969H125.924C126.653 121.969 127.26 122.06 127.744 122.242C128.229 122.424 128.59 122.695 128.83 123.055C129.075 123.414 129.197 123.859 129.197 124.391C129.197 124.922 129.077 125.383 128.838 125.773C128.604 126.164 128.239 126.466 127.744 126.68C127.255 126.893 126.622 127 125.846 127H121.994V118.438H123.299V121.969ZM127.893 124.453C127.893 123.927 127.705 123.562 127.33 123.359C126.96 123.151 126.442 123.047 125.775 123.047H123.299V125.945H125.783C126.408 125.945 126.916 125.831 127.307 125.602C127.697 125.367 127.893 124.984 127.893 124.453Z" fill="#3B3B3B"/>
<path d="M119.26 127H117.939V119.523H115.338C115.234 120.872 115.101 122.029 114.939 122.992C114.783 123.951 114.585 124.734 114.346 125.344C114.111 125.948 113.825 126.393 113.486 126.68C113.153 126.961 112.755 127.102 112.291 127.102C112.15 127.102 112.018 127.094 111.893 127.078C111.768 127.062 111.661 127.036 111.572 127V126.016C111.64 126.036 111.71 126.052 111.783 126.062C111.861 126.073 111.942 126.078 112.025 126.078C112.26 126.078 112.473 125.982 112.666 125.789C112.864 125.591 113.041 125.294 113.197 124.898C113.359 124.503 113.502 124.003 113.627 123.398C113.752 122.789 113.861 122.073 113.955 121.25C114.054 120.422 114.14 119.484 114.213 118.438H119.26V127Z" fill="#3B3B3B"/>
<path d="M103.471 118.438H104.861L106.752 123.406C106.861 123.698 106.963 123.979 107.057 124.25C107.15 124.516 107.234 124.771 107.307 125.016C107.38 125.26 107.437 125.497 107.479 125.727H107.533C107.606 125.466 107.71 125.125 107.846 124.703C107.981 124.276 108.127 123.841 108.283 123.398L110.072 118.438H111.471L107.744 128.258C107.546 128.784 107.314 129.242 107.049 129.633C106.788 130.023 106.471 130.323 106.096 130.531C105.721 130.745 105.268 130.852 104.736 130.852C104.492 130.852 104.275 130.836 104.088 130.805C103.9 130.779 103.739 130.747 103.604 130.711V129.672C103.718 129.698 103.856 129.721 104.018 129.742C104.184 129.763 104.356 129.773 104.533 129.773C104.856 129.773 105.135 129.711 105.369 129.586C105.609 129.466 105.814 129.289 105.986 129.055C106.158 128.82 106.307 128.542 106.432 128.219L106.9 127.016L103.471 118.438Z" fill="#3B3B3B"/>
<path d="M99.291 118.281C99.9316 118.281 100.486 118.37 100.955 118.547C101.424 118.719 101.786 118.971 102.041 119.305C102.296 119.638 102.424 120.044 102.424 120.523C102.424 121.039 102.283 121.451 102.002 121.758C101.721 122.065 101.333 122.286 100.838 122.422V122.484C101.187 122.578 101.502 122.714 101.783 122.891C102.07 123.062 102.296 123.292 102.463 123.578C102.635 123.859 102.721 124.211 102.721 124.633C102.721 125.112 102.59 125.544 102.33 125.93C102.07 126.31 101.674 126.609 101.143 126.828C100.611 127.047 99.9395 127.156 99.127 127.156C98.7259 127.156 98.3457 127.133 97.9863 127.086C97.627 127.044 97.3014 126.982 97.0098 126.898C96.7181 126.815 96.4629 126.716 96.2441 126.602V125.422C96.6087 125.599 97.0358 125.755 97.5254 125.891C98.015 126.026 98.5436 126.094 99.1113 126.094C99.5488 126.094 99.9421 126.044 100.291 125.945C100.64 125.841 100.916 125.677 101.119 125.453C101.327 125.224 101.432 124.924 101.432 124.555C101.432 124.216 101.34 123.938 101.158 123.719C100.976 123.495 100.702 123.331 100.338 123.227C99.9785 123.117 99.5228 123.062 98.9707 123.062H97.8223V122H98.7676C99.502 122 100.088 121.896 100.525 121.688C100.963 121.479 101.182 121.128 101.182 120.633C101.182 120.206 101.012 119.888 100.674 119.68C100.335 119.466 99.8509 119.359 99.2207 119.359C98.752 119.359 98.3379 119.409 97.9785 119.508C97.6191 119.602 97.2311 119.737 96.8145 119.914L96.3535 118.875C96.8014 118.677 97.2702 118.529 97.7598 118.43C98.2493 118.331 98.7598 118.281 99.291 118.281Z" fill="#3B3B3B"/>
<path d="M91.4004 118.281C92.1296 118.281 92.7546 118.443 93.2754 118.766C93.7962 119.089 94.1947 119.542 94.4707 120.125C94.7467 120.703 94.8848 121.38 94.8848 122.156V122.961H88.9707C88.9863 123.966 89.2363 124.732 89.7207 125.258C90.2051 125.784 90.8874 126.047 91.7676 126.047C92.3092 126.047 92.7884 125.997 93.2051 125.898C93.6217 125.799 94.054 125.654 94.502 125.461V126.602C94.0697 126.794 93.64 126.935 93.2129 127.023C92.791 127.112 92.291 127.156 91.7129 127.156C90.89 127.156 90.1712 126.99 89.5566 126.656C88.9473 126.318 88.4733 125.823 88.1348 125.172C87.7962 124.521 87.627 123.724 87.627 122.781C87.627 121.859 87.7806 121.062 88.0879 120.391C88.4004 119.714 88.8379 119.193 89.4004 118.828C89.9681 118.464 90.6348 118.281 91.4004 118.281ZM91.3848 119.344C90.6921 119.344 90.14 119.57 89.7285 120.023C89.3171 120.477 89.0723 121.109 88.9941 121.922H93.5254C93.5202 121.411 93.4395 120.964 93.2832 120.578C93.1322 120.188 92.9004 119.885 92.5879 119.672C92.2754 119.453 91.8743 119.344 91.3848 119.344Z" fill="#3B3B3B"/>
<path d="M81.6582 115.578C83.1322 115.578 84.2077 115.867 84.8848 116.445C85.5671 117.018 85.9082 117.841 85.9082 118.914C85.9082 119.398 85.8275 119.859 85.666 120.297C85.5098 120.729 85.2546 121.112 84.9004 121.445C84.5462 121.773 84.0801 122.034 83.502 122.227C82.929 122.414 82.2259 122.508 81.3926 122.508H80.002V127H78.6738V115.578H81.6582ZM81.5332 116.711H80.002V121.367H81.2441C81.9733 121.367 82.5801 121.289 83.0645 121.133C83.554 120.977 83.9212 120.724 84.166 120.375C84.4108 120.021 84.5332 119.552 84.5332 118.969C84.5332 118.208 84.291 117.643 83.8066 117.273C83.3223 116.898 82.5645 116.711 81.5332 116.711Z" fill="#3B3B3B"/>
</svg>
