<?xml version="1.0" standalone="no"?>
<!DOCTYPE svg PUBLIC "-//W3C//DTD SVG 20010904//EN"
 "http://www.w3.org/TR/2001/REC-SVG-20010904/DTD/svg10.dtd">
<svg version="1.0" xmlns="http://www.w3.org/2000/svg"
 width="1000.000000pt" height="1000.000000pt" viewBox="0 0 1000.000000 1000.000000"
 preserveAspectRatio="xMidYMid meet">
<metadata>
Created by potrace 1.14, written by Peter Selinger 2001-2017
</metadata>
<g transform="translate(0.000000,1000.000000) scale(0.100000,-0.100000)"
fill="#000000" stroke="none">
<path d="M6428 8435 c-2 -2 -43 -6 -93 -10 -169 -12 -179 -14 -430 -88 -168
-50 -402 -168 -575 -291 -156 -112 -354 -295 -448 -416 -37 -46 -86 -106 -110
-133 -23 -26 -51 -67 -62 -90 -11 -23 -45 -76 -76 -117 -32 -41 -69 -102 -84
-135 -15 -33 -44 -84 -64 -114 -20 -29 -36 -55 -36 -58 0 -5 -99 -206 -105
-211 -1 -1 -20 4 -41 13 -22 8 -68 24 -104 34 -36 11 -127 38 -203 60 -134 40
-397 109 -447 117 -14 3 -38 9 -55 14 -16 5 -46 11 -65 14 -19 2 -71 11 -115
20 -44 8 -100 18 -125 21 -25 4 -58 8 -75 11 -172 24 -294 33 -485 34 -191 0
-329 -11 -440 -34 -49 -11 -90 -19 -162 -32 -25 -4 -236 -83 -293 -110 -27
-13 -74 -40 -102 -61 -29 -21 -79 -56 -110 -78 -82 -56 -137 -116 -208 -225
-108 -165 -147 -253 -159 -360 -3 -25 -8 -72 -12 -105 -10 -82 -11 -215 -2
-245 49 -165 98 -305 123 -347 117 -205 280 -381 490 -531 55 -39 105 -75 112
-81 6 -6 29 -20 50 -31 21 -12 70 -39 108 -61 181 -103 494 -245 725 -329 47
-17 94 -35 105 -40 32 -14 287 -101 326 -111 20 -4 65 -22 100 -39 35 -16 70
-30 76 -30 7 0 40 -14 74 -32 l61 -32 -7 -295 c-12 -525 -9 -818 10 -931 2
-14 9 -54 14 -90 6 -36 13 -76 16 -90 2 -13 7 -42 11 -65 15 -102 100 -357
166 -493 37 -79 68 -146 68 -149 0 -11 230 -319 252 -337 33 -27 158 -137 188
-164 47 -44 105 -79 262 -156 151 -74 162 -78 342 -115 127 -26 204 -37 248
-35 341 15 333 14 655 113 33 10 102 43 208 101 33 18 79 43 102 55 40 22 94
58 120 80 27 22 45 37 140 114 55 43 119 103 144 131 24 28 58 66 74 84 93 99
128 142 183 227 34 52 65 99 69 104 19 23 103 159 103 166 0 5 30 68 66 141
53 108 118 274 139 358 2 8 15 51 30 95 14 43 28 95 31 115 3 19 7 42 8 50 7
39 19 101 32 166 27 137 37 457 21 677 -6 75 -5 97 5 97 7 0 84 42 170 94 132
79 200 126 272 191 6 6 48 41 94 78 45 38 82 72 82 75 0 4 17 25 38 47 21 22
64 71 97 110 33 38 67 78 76 88 13 15 147 225 200 316 9 15 49 103 88 196 55
130 83 216 120 365 27 107 52 224 55 260 23 267 25 353 13 490 -4 47 -10 110
-12 140 -6 66 -13 112 -19 131 -3 8 -8 25 -10 39 -9 46 -74 285 -85 313 -14
35 -42 98 -102 225 -27 57 -49 107 -49 110 -1 23 -243 347 -299 400 -215 205
-314 285 -396 323 -11 5 -51 29 -90 54 -38 25 -83 52 -100 60 -50 25 -378 136
-415 141 -19 3 -51 7 -70 9 -19 3 -57 7 -85 11 -27 3 -75 9 -105 14 -50 7
-225 11 -232 5z m182 -1479 c136 -27 273 -150 351 -316 75 -157 94 -408 44
-572 -8 -27 -12 -48 -9 -48 3 0 2 -6 -3 -12 -4 -7 -8 -18 -9 -24 -4 -27 -75
-166 -117 -229 -76 -116 -177 -208 -297 -272 -81 -44 -109 -47 -175 -18 -242
108 -514 93 -719 -37 -76 -49 -123 -92 -200 -183 -34 -39 -100 -177 -119 -245
-39 -140 -37 -298 4 -430 18 -57 71 -170 80 -170 5 0 9 -7 9 -14 0 -18 159
-187 193 -205 48 -26 87 -236 81 -432 -14 -413 -244 -847 -515 -974 -93 -43
-121 -32 -173 72 -36 72 -63 176 -82 313 -18 129 -23 443 -10 575 50 507 11
842 -133 1137 -45 92 -88 164 -121 203 -28 33 -71 83 -95 110 -23 28 -39 53
-33 56 5 3 39 7 76 8 37 1 87 4 112 7 51 6 170 42 185 55 5 5 16 9 24 9 26 0
194 88 231 120 154 137 194 179 259 275 64 93 169 289 231 430 12 28 40 87 61
131 21 45 39 84 39 88 0 3 12 25 28 49 15 23 41 65 57 94 17 29 58 85 91 126
213 256 436 366 654 323z"/>
</g>
</svg>
