<svg width="20" height="20" viewBox="0 0 20 20" xmlns="http://www.w3.org/2000/svg"><path fill-rule="evenodd" clip-rule="evenodd" d="M3.23223 1.56622C3.70107 1.09738 4.33696 0.833984 5 0.833984H11.6667C11.8877 0.833984 12.0996 0.921782 12.2559 1.07806L17.2559 6.07806C17.4122 6.23434 17.5 6.4463 17.5 6.66732V16.6673C17.5 17.3304 17.2366 17.9662 16.7678 18.4351C16.2989 18.9039 15.663 19.1673 15 19.1673H5C4.33696 19.1673 3.70107 18.9039 3.23223 18.4351C2.76339 17.9662 2.5 17.3304 2.5 16.6673V3.33398C2.5 2.67094 2.76339 2.03506 3.23223 1.56622ZM5 2.50065C4.77899 2.50065 4.56702 2.58845 4.41074 2.74473C4.25446 2.90101 4.16667 3.11297 4.16667 3.33398V16.6673C4.16667 16.8883 4.25446 17.1003 4.41074 17.2566C4.56702 17.4129 4.77899 17.5007 5 17.5007H15C15.221 17.5007 15.433 17.4129 15.5893 17.2566C15.7455 17.1003 15.8333 16.8883 15.8333 16.6673V7.50065H11.6667C11.2064 7.50065 10.8333 7.12755 10.8333 6.66732V2.50065H5ZM12.5 3.67916L14.6548 5.83398H12.5V3.67916ZM5.83333 7.50065C5.83333 7.04041 6.20643 6.66732 6.66667 6.66732H8.33333C8.79357 6.66732 9.16667 7.04041 9.16667 7.50065C9.16667 7.96089 8.79357 8.33398 8.33333 8.33398H6.66667C6.20643 8.33398 5.83333 7.96089 5.83333 7.50065ZM5.83333 10.834C5.83333 10.3737 6.20643 10.0007 6.66667 10.0007H13.3333C13.7936 10.0007 14.1667 10.3737 14.1667 10.834C14.1667 11.2942 13.7936 11.6673 13.3333 11.6673H6.66667C6.20643 11.6673 5.83333 11.2942 5.83333 10.834ZM5.83333 14.1673C5.83333 13.7071 6.20643 13.334 6.66667 13.334H13.3333C13.7936 13.334 14.1667 13.7071 14.1667 14.1673C14.1667 14.6276 13.7936 15.0007 13.3333 15.0007H6.66667C6.20643 15.0007 5.83333 14.6276 5.83333 14.1673Z"/></svg>