<svg width="30" height="22" viewBox="0 0 30 22" fill="none" xmlns="http://www.w3.org/2000/svg">
<path d="M3.96593e-10 2C1.77561e-10 0.895431 0.895431 -1.77561e-10 2 -3.96593e-10L28 -5.5523e-09C29.1046 -5.77133e-09 30 0.895431 30 2V2C30 3.10457 29.1046 4 28 4L2 4C0.89543 4 6.15625e-10 3.10457 3.96593e-10 2V2Z" fill="white"/>
<path d="M3.96593e-10 11C1.77561e-10 9.89543 0.895431 9 2 9L28 9C29.1046 9 30 9.89543 30 11V11C30 12.1046 29.1046 13 28 13L2 13C0.89543 13 6.15625e-10 12.1046 3.96593e-10 11V11Z" fill="white"/>
<path d="M3.96593e-10 20C1.77561e-10 18.8954 0.895431 18 2 18L28 18C29.1046 18 30 18.8954 30 20V20C30 21.1046 29.1046 22 28 22L2 22C0.89543 22 6.15625e-10 21.1046 3.96593e-10 20V20Z" fill="white"/>
</svg>
