<svg width="48" height="49" viewBox="0 0 48 49" fill="none" xmlns="http://www.w3.org/2000/svg"><path d="M23.0439 25.4999C23.0439 26.519 22.1839 28.3926 20.1777 30.0941C18.2551 31.7249 15.8724 32.6718 13.6967 32.4741C9.03841 32.0513 6 29.0165 6 25.4999C6 21.9835 9.03841 18.9487 13.6967 18.5259C15.8724 18.3282 18.2551 19.2751 20.1777 20.9059C22.1839 22.6074 23.0439 24.4808 23.0439 25.4999Z" stroke="black" stroke-width="2.81724"/><path d="M43.5596 25.4999C43.5596 29.0165 40.5212 32.0513 35.8627 32.4741C33.687 32.6718 31.3044 31.7249 29.382 30.0941C27.3758 28.3926 26.5156 26.519 26.5156 25.4999C26.5156 24.4808 27.3758 22.6074 29.382 20.9059C31.3044 19.2751 33.687 18.3282 35.8627 18.5259C40.5212 18.9487 43.5596 21.9835 43.5596 25.4999Z" stroke="black" stroke-width="2.81724"/></svg>