<svg width="24" height="24" viewBox="0 0 24 24" fill="none" xmlns="http://www.w3.org/2000/svg">
<path d="M1.41247 1.41175C2.19216 0.632064 3.45628 0.632064 4.23597 1.41175L22.5887 19.7646C23.3684 20.5443 23.3684 21.8084 22.5887 22.5881V22.5881C21.809 23.3678 20.5449 23.3678 19.7652 22.5881L1.41247 4.23526C0.632785 3.45557 0.632785 2.19144 1.41247 1.41175V1.41175Z" fill="#759AFB"/>
<path d="M1.41175 22.5875C0.632061 21.8078 0.632061 20.5437 1.41175 19.764L19.7645 1.41122C20.5441 0.631531 21.8083 0.63153 22.588 1.41122V1.41122C23.3676 2.19091 23.3676 3.45504 22.588 4.23473L4.23524 22.5875C3.45555 23.3672 2.19143 23.3672 1.41175 22.5875V22.5875Z" fill="#759AFB"/>
</svg>
